<svg width="23" height="23" viewBox="0 0 23 23" fill="none" xmlns="http://www.w3.org/2000/svg">
<path d="M0.414005 12.4096L1.91322 13.9088L7.9097 7.91235H2.91233L0.413644 10.4107C-0.13784 10.9622 -0.13784 11.8581 0.413644 12.4096H0.414005Z" fill="white"/>
<path d="M2.92426 6.46663H11.4024L7.86988 2.93408H4.33734C3.54486 2.93408 2.92426 3.55432 2.92426 4.34717V6.46663Z" fill="white"/>
<path d="M2.93414 18.4694C2.93414 19.2619 3.55438 19.8825 4.34723 19.8825H6.46668V11.4043L2.93414 14.9368V18.4694Z" fill="white"/>
<path d="M7.91174 19.8878L10.4104 22.3865C10.9619 22.938 11.8579 22.938 12.4094 22.3865L13.9086 20.8873L7.9121 14.8962V19.8878H7.91174Z" fill="white"/>
<path d="M8.89676 1.91319L14.8932 7.90969V2.9123L12.3946 0.413614C11.8431 -0.137871 10.9471 -0.137871 10.3956 0.413614L8.89639 1.91283L8.89676 1.91319Z" fill="white"/>
<path d="M11.405 16.3398L14.9375 19.8724H18.47C19.2625 19.8724 19.8831 19.2521 19.8831 18.4593V16.3398H11.405Z" fill="white"/>
<path d="M14.8982 14.8931H19.8898L22.3885 12.3944C22.9399 11.8429 22.9399 10.9469 22.3885 10.3955L20.8892 8.89624L14.8982 14.8927V14.8931Z" fill="white"/>
<path d="M16.338 11.403L19.8706 7.87044V4.33789C19.8706 3.54541 19.2503 2.9248 18.4575 2.9248H16.338V11.4026V11.403Z" fill="white"/>
</svg>
